<?xml version="1.0" encoding="UTF-8" standalone="no"?><!DOCTYPE svg PUBLIC "-//W3C//DTD SVG 1.1//EN" "http://www.w3.org/Graphics/SVG/1.1/DTD/svg11.dtd"><svg width="100%" height="100%" viewBox="0 0 56 68" version="1.1" xmlns="http://www.w3.org/2000/svg" xmlns:xlink="http://www.w3.org/1999/xlink" xml:space="preserve" xmlns:serif="http://www.serif.com/" style="fill-rule:evenodd;clip-rule:evenodd;stroke-linejoin:round;stroke-miterlimit:2;"><g><path d="M55.928,42.803c-1.386,1.242 -3.211,2.004 -5.215,2.004l-45.498,-0c-2.701,-0 -4.928,2.065 -5.189,4.699c-0.017,0.17 -0.026,0.343 -0.026,0.516l-0,4.59c-0,3.493 2.839,6.332 6.331,6.332l2.985,-0l0,-6.721l-1.321,-0c-0.723,-0 -1.309,-0.586 -1.309,-1.31c-0,-0.723 0.586,-1.309 1.309,-1.309l42.718,-0c2.877,-0 5.215,-2.338 5.215,-5.215l-0.003,-3.586l0.003,-0Z" style="fill-rule:nonzero;"/><path d="M29.273,54.223l0,6.721l20.321,-0c3.492,-0 6.331,-2.839 6.331,-6.331l-0,-2.391c-1.386,1.242 -3.211,2.004 -5.215,2.004l-21.437,-0.003Z" style="fill-rule:nonzero;"/><path d="M9.197,0l40.397,0c3.492,0 6.334,2.839 6.331,6.331l0.003,21.074l-0,9.565c-0,2.877 -2.338,5.215 -5.215,5.215l-41.516,-0l-0,-42.185Zm15.557,19.197c3.468,-2.108 3.502,-6.902 0.612,-9.52c-0.238,-0.272 -0.578,-0.51 -0.918,-0.68c-0.34,-0.17 -0.714,-0.34 -1.088,-0.476c-1.428,-0.544 -3.128,-0.714 -4.624,-0.748c-0.952,-0.034 -1.87,0 -2.788,0c-2.312,-0.034 -4.59,0.068 -4.59,2.618l-0,19.312c-0,0.17 0.034,0.374 0.136,0.612c0.136,0.714 0.408,1.326 1.19,1.564c1.768,0.374 3.706,0.306 5.474,0.272c1.394,0 3.366,-0.204 4.692,-0.51c4.896,-1.02 5.916,-5.1 4.692,-8.806c-0.544,-1.666 -1.462,-2.788 -2.788,-3.638Zm-5.95,9.01c-1.122,0.034 -2.142,-0.136 -2.652,-0.612c-0.476,-0.476 -0.34,-1.36 -0.34,-1.972c-0,-1.088 0.136,-2.312 0.068,-3.468c-0.034,-1.258 0.816,-1.122 2.108,-1.156c1.326,0 2.754,0.17 3.808,0.986c1.564,1.122 1.87,3.91 0.646,5.338c-0.544,0.646 -2.244,0.816 -3.638,0.884Zm0.68,-16.32c2.108,0.068 3.502,0.748 3.332,2.788c-0.136,1.632 -1.02,2.414 -2.652,2.686c-1.462,0.238 -4.25,0.612 -4.216,-1.224c-0,-0.816 0.034,-1.666 0.034,-2.516c-0.068,-2.108 0.68,-1.802 3.502,-1.734Zm34.408,-2.856c-0.034,-0.34 -0.17,-0.646 -0.408,-0.884c-0.306,-0.238 -0.612,-0.374 -0.986,-0.442c-0.306,-0.102 -0.578,-0.136 -0.85,-0.136c-0.238,0 -0.51,0.102 -0.816,0.272c-0.17,0.102 -0.374,0.238 -0.51,0.442c-0.17,0.238 -0.272,0.476 -0.374,0.714c-0.102,0.306 -0.204,0.544 -0.272,0.816c-0.068,0.306 -0.102,0.544 -0.17,0.782l-0.17,0.578c-0.578,2.38 -1.258,4.896 -1.836,7.344c-0.34,1.428 -0.782,3.672 -1.088,4.692c-0.68,-1.36 -1.496,-3.944 -2.278,-5.95c-0.442,-1.088 -1.054,-2.312 -1.802,-2.618c-1.734,-0.646 -2.448,0.884 -3.196,3.06c-0.714,2.074 -1.326,4.148 -1.904,6.154c-0.51,-1.394 -1.156,-5.032 -1.564,-6.63c-0.51,-2.006 -1.156,-4.284 -1.564,-6.63c-0.034,-0.238 -0.102,-0.476 -0.17,-0.782c-0.102,-0.272 -0.17,-0.51 -0.272,-0.816l-0.408,-0.714c-0.136,-0.204 -0.306,-0.34 -0.476,-0.442c-0.272,-0.17 -0.578,-0.272 -0.85,-0.272c-0.238,0 -0.544,0.034 -0.85,0.136c-0.34,0.068 -0.68,0.204 -0.918,0.442c-0.272,0.238 -0.442,0.544 -0.476,0.884c-0.068,0.442 -0.034,0.884 0.034,1.36c0.544,3.026 0.748,4.284 1.156,5.848c0.442,1.598 0.782,3.06 1.122,4.454l1.394,5.474l0.68,2.55c0.136,0.612 0.408,1.19 0.612,1.836c0.17,0.442 0.51,0.884 0.952,1.156c2.38,1.53 3.332,-1.428 4.012,-3.264c0.306,-0.884 1.19,-4.284 2.006,-6.29c0.51,1.156 1.734,5.372 2.074,6.052c0.544,1.122 0.918,2.72 2.006,3.468c1.428,1.02 2.516,0.17 3.162,-1.19c0.374,-0.782 0.612,-1.564 0.816,-2.312c0.612,-2.244 1.224,-5.236 1.768,-7.48c0.646,-2.754 1.53,-6.052 2.142,-8.84l0.034,-0.136c0.068,-0.442 0.17,-0.884 0.238,-1.326c0.102,-0.476 0.102,-0.918 -0,-1.36Z"/><path d="M6.574,42.185l-0,-42.185l-0.24,0c-3.492,0 -6.331,2.839 -6.331,6.331l-0,37.858c1.385,-1.242 3.211,-2.004 5.214,-2.004l1.357,-0Z" style="fill-rule:nonzero;"/><path d="M18.695,64.336c0.348,-0.158 0.747,-0.158 1.092,0.003l6.868,3.161l-0,-13.277l-14.716,-0l-0,13.201l6.756,-3.088Z" style="fill-rule:nonzero;"/></g></svg>