<?xml version="1.0" encoding="UTF-8" standalone="no"?><!DOCTYPE svg PUBLIC "-//W3C//DTD SVG 1.1//EN" "http://www.w3.org/Graphics/SVG/1.1/DTD/svg11.dtd"><svg width="100%" height="100%" viewBox="0 0 75 75" version="1.1" xmlns="http://www.w3.org/2000/svg" xmlns:xlink="http://www.w3.org/1999/xlink" xml:space="preserve" xmlns:serif="http://www.serif.com/" style="fill-rule:evenodd;clip-rule:evenodd;stroke-linecap:round;stroke-linejoin:round;stroke-miterlimit:1.5;"><circle cx="37.5" cy="37.5" r="37.363" style="fill:#66d7f7;"/><g><path d="M6.234,29.035c0,-0 7.051,-5.987 10.369,-7.714c3.317,-1.727 15.31,-3.478 15.31,-3.478c-0,0 7.674,-5.131 11.689,-6.745c4.015,-1.615 13.299,-2.611 14.402,-1.138c1.102,1.473 11.512,34.374 11.512,34.374l-4.148,-0l1.261,6.893c0,0 -14.105,-1.275 -19.957,1.138c-5.851,2.412 -22.638,13.121 -22.638,13.121l-2.031,-5.562l-2.216,1.295l-13.776,-30.773l0.223,-1.411Z" style="fill:#8bdf84;stroke:#000;stroke-width:0.75px;"/><path d="M71.145,43.666l-10.899,-33.352c-0.173,-1.014 -0.928,-1.825 -1.924,-2.071c-9.73,-1.74 -19.714,1.154 -27,7.83l-0.121,0c-9.96,-0.149 -19.506,3.988 -26.205,11.361c-0.179,0.197 -1.755,1.5 -1.014,2.866c5.417,10.192 9.518,20.947 14.288,31.423c0.516,0.888 1.632,1.216 2.543,0.75l1.418,3.405l0,0.002c0.199,0.642 0.715,1.137 1.368,1.31c0.651,0.17 1.345,-0.009 1.834,-0.472c14.318,-12.726 17.467,-10.875 19.606,-11.818c6.697,-2.909 14.206,-3.369 21.208,-1.307c0.665,0.17 1.368,-0.02 1.851,-0.504c0.484,-0.483 0.674,-1.186 0.504,-1.851l-1.125,-4.5c0.255,0.052 0.51,0.111 0.75,0.178c1.74,0.408 3.346,-1.924 2.918,-3.252l-0,0.002Zm-45.824,18.044l-0.519,0.451l-1.057,-2.519c-0.009,-0.03 -0.021,-0.059 -0.038,-0.082c3.178,-2.321 6.779,-4.002 10.597,-4.952c-3.378,1.837 -6.417,4.24 -8.983,7.102l0,0Zm-4.898,-4.441l-12.466,-27.411c5.971,-6.457 14.405,-10.072 23.197,-9.946l11.409,29.956c-8.019,-0.188 -15.847,2.431 -22.14,7.403l-0,-0.002Zm31.596,-8.309c3.56,-1.928 7.568,-2.871 11.61,-2.736l0.51,2.924c-3.999,-0.768 -8.101,-0.83 -12.12,-0.188l0,0Zm-5.947,-0.586l-11.467,-30.103c6.164,-5.121 14.186,-7.441 22.131,-6.407c3.361,10.286 6.718,20.564 10.073,30.832l-0,0.003c-7.403,-1.111 -14.93,0.949 -20.736,5.678l-0.001,-0.003Z" style="fill-rule:nonzero;"/><path d="M30,28.186c-0.55,-0.891 -1.702,-1.193 -2.616,-0.683l-12.691,6c-0.906,0.533 -1.213,1.699 -0.689,2.611c0.545,0.893 1.699,1.198 2.616,0.688l12.698,-6c0.905,-0.539 1.207,-1.705 0.682,-2.616l0,-0Z" style="fill-rule:nonzero;"/><path d="M32.798,33.743c-0.545,-0.893 -1.696,-1.195 -2.611,-0.691l-11.909,5.552c-0.442,0.257 -0.762,0.682 -0.888,1.177c-0.128,0.495 -0.055,1.023 0.206,1.462c0.544,0.894 1.696,1.196 2.61,0.692l11.909,-5.567c0.911,-0.536 1.219,-1.711 0.683,-2.625l-0,0Z" style="fill-rule:nonzero;"/><path d="M32.183,39.796l-11.429,5.768c-2.197,1.111 -0.263,4.409 1.934,3.308l11.422,-5.769c2.198,-1.11 0.261,-4.409 -1.927,-3.307l-0,-0Z" style="fill-rule:nonzero;"/><path d="M54.554,18.782c-0.545,-0.897 -1.699,-1.202 -2.616,-0.692l-9.938,4.74c-0.905,0.536 -1.213,1.7 -0.691,2.611c0.548,0.893 1.702,1.198 2.619,0.691l9.952,-4.731l0,-0.003c0.903,-0.542 1.202,-1.705 0.674,-2.617l-0,0.001Z" style="fill-rule:nonzero;"/><path d="M53.596,24.383l-9,4.442c-2.25,1.087 -0.278,4.388 1.928,3.298l9,-4.441c2.226,-1.087 0.269,-4.386 -1.928,-3.299Z" style="fill-rule:nonzero;"/><path d="M55.125,30.691l-7.5,3.99c-2.173,1.163 -0.24,4.5 1.928,3.299c2.499,-1.324 4.986,-2.655 7.462,-3.99c2.235,-1.161 0.278,-4.462 -1.89,-3.299Z" style="fill-rule:nonzero;"/></g></svg>